<svg xmlns="http://www.w3.org/2000/svg" viewBox="0 0 800 1100" width="100%" height="100%" style="background:#ffffff; font-family: -apple-system, BlinkMacSystemFont, 'Segoe UI', Roboto, sans-serif;">
  <defs>
    <linearGradient id="headerGrad" x1="0%" y1="0%" x2="100%" y2="100%">
      <stop offset="0%" stop-color="#0284c7" />
      <stop offset="100%" stop-color="#0f172a" />
    </linearGradient>
    <pattern id="grid" width="40" height="40" patternUnits="userSpaceOnUse">
      <path d="M 40 0 L 0 0 0 40" fill="none" stroke="#f1f5f9" stroke-width="1"/>
    </pattern>
  </defs>

  <rect width="800" height="1100" fill="url(#grid)" />
  <rect x="25" y="25" width="750" height="1050" rx="16" fill="#ffffff" stroke="#cbd5e1" stroke-width="2"/>
  
  <!-- Header Bar -->
  <rect x="25" y="25" width="750" height="140" rx="16" fill="url(#headerGrad)"/>
  
  <!-- Vault Seal Icon -->
  <circle cx="85" cy="95" r="35" fill="rgba(255,255,255,0.15)"/>
  <path d="M85 70 L65 80 V95 C65 107 73 118 85 121 C97 118 105 107 105 95 V80 Z" fill="#38bdf8"/>
  <path d="M85 82 L75 90 V102 H95 V90 Z" fill="#ffffff"/>

  <text x="140" y="85" fill="#ffffff" font-size="28" font-weight="bold" letter-spacing="1">FAMILYVAULT VERIFIED RECORD</text>
  <text x="140" y="115" fill="#93c5fd" font-size="15" font-weight="500">DIGITALLY ARCHIVED &amp; ENCRYPTED DOCUMENT</text>

  <!-- Title & Category Badge -->
  <rect x="60" y="200" width="130" height="34" rx="17" fill="#e0f2fe"/>
  <text x="125" y="222" fill="#0369a1" font-size="14" font-weight="bold" text-anchor="middle">EDUCATION</text>

  <text x="60" y="280" fill="#0f172a" font-size="34" font-weight="800">MBA Certificate - Rahul Reddy</text>
  <text x="60" y="315" fill="#64748b" font-size="16">Family Record Holder: <tspan fill="#0284c7" font-weight="bold">Rahul Reddy</tspan></text>
  
  <line x1="60" y1="345" x2="740" y2="345" stroke="#e2e8f0" stroke-width="2"/>

  <!-- Info Grid -->
  <rect x="60" y="375" width="320" height="90" rx="10" fill="#f8fafc" stroke="#e2e8f0"/>
  <text x="80" y="405" fill="#64748b" font-size="13" font-weight="600">IDENTIFICATION / POLICY NO.</text>
  <text x="80" y="440" fill="#0f172a" font-size="20" font-weight="bold">IIM-MBA-2008-042</text>

  <rect x="420" y="375" width="320" height="90" rx="10" fill="#f8fafc" stroke="#e2e8f0"/>
  <text x="440" y="405" fill="#64748b" font-size="13" font-weight="600">SECURITY STATUS</text>
  <text x="440" y="440" fill="#16a34a" font-size="20" font-weight="bold">ACTIVE IN VAULT</text>

  <!-- Document Body Placeholder Info -->
  <text x="60" y="520" fill="#334155" font-size="16" font-weight="600">Document Verification Details:</text>
  <rect x="60" y="540" width="680" height="340" rx="12" fill="#f8fafc" stroke="#e2e8f0"/>
  
  <text x="90" y="580" fill="#475569" font-size="15">• Issuing Body: Official Registered Authority</text>
  <text x="90" y="620" fill="#475569" font-size="15">• Digital Checksum: SHA-256 Verified</text>
  <text x="90" y="660" fill="#475569" font-size="15">• Access Level: Family Vault Authorized Members</text>
  <text x="90" y="700" fill="#475569" font-size="15">• Original Resolution: 300 DPI High-Fidelity Scanned Document</text>
  <text x="90" y="740" fill="#475569" font-size="15">• Encryption: AES-GCM Encrypted Storage Reference</text>
  <text x="90" y="780" fill="#475569" font-size="15">• Storage Tag: #FamilyVault #Education #Rahul Reddy</text>

  <!-- Watermark Stamp -->
  <circle cx="620" cy="740" r="65" fill="none" stroke="#0ea5e9" stroke-width="4" stroke-dasharray="6,4" opacity="0.6"/>
  <text x="620" y="735" fill="#0284c7" font-size="14" font-weight="bold" text-anchor="middle" opacity="0.8">FAMILYVAULT</text>
  <text x="620" y="755" fill="#0284c7" font-size="12" font-weight="bold" text-anchor="middle" opacity="0.8">VERIFIED</text>

  <!-- Footer -->
  <line x1="60" y1="920" x2="740" y2="920" stroke="#e2e8f0" stroke-width="1"/>
  <text x="60" y="955" fill="#94a3b8" font-size="13">FamilyVault Safe Storage Engine • Vault ID: FV-REDDY-2026</text>
  <text x="60" y="980" fill="#94a3b8" font-size="13">“Your family documents. Safe, organized, always ready.”</text>
</svg>